<svg width="1.5rem" height="1.5rem" viewBox="0 0 24 24" fill="none" xmlns="http://www.w3.org/2000/svg">
<path d="M22 12.4308C22 11.5918 21.9319 10.9796 21.7846 10.3447H12.2041V14.1315H17.8276C17.7143 15.0726 17.102 16.4898 15.7415 17.4421L15.7224 17.5689L18.7516 19.9156L18.9614 19.9365C20.8888 18.1564 22 15.5374 22 12.4308Z" fill="#4285F4"/>
<path d="M12.2041 22.4082C14.9591 22.4082 17.272 21.5011 18.9614 19.9365L15.7415 17.4421C14.8798 18.043 13.7233 18.4625 12.2041 18.4625C9.50568 18.4625 7.21545 16.6825 6.39905 14.2222L6.27938 14.2324L3.1296 16.67L3.08841 16.7845C4.7664 20.1179 8.21312 22.4082 12.2041 22.4082Z" fill="#34A853"/>
<path d="M6.39905 14.2222C6.18363 13.5873 6.05897 12.907 6.05897 12.2041C6.05897 11.5011 6.18363 10.8208 6.38772 10.1859L6.38201 10.0507L3.19276 7.57391L3.08841 7.62354C2.39683 9.00678 2 10.5601 2 12.2041C2 13.8481 2.39683 15.4013 3.08841 16.7845L6.39905 14.2222Z" fill="#FBBC05"/>
<path d="M12.2041 5.94555C14.1201 5.94555 15.4126 6.77321 16.1496 7.46487L19.0294 4.65306C17.2608 3.00907 14.9591 2 12.2041 2C8.21312 2 4.7664 4.29023 3.08841 7.62354L6.38772 10.1859C7.21545 7.72562 9.50568 5.94555 12.2041 5.94555Z" fill="#EB4335"/>
</svg>
