<svg width="1.5rem" height="1.5rem" viewBox="0 0 24 24" fill="none" xmlns="http://www.w3.org/2000/svg">
<path d="M18 15C18.4992 15 18.989 14.9593 19.4661 14.8812C20.2725 14.7491 21.0429 14.5098 21.762 14.1784C21.5707 15.0397 21.2682 15.8593 20.8705 16.6212C19.2017 19.8178 15.8557 22 12 22C6.47715 22 2 17.5228 2 12C2 8.14425 4.18215 4.79821 7.37882 3.12946C8.14073 2.73173 8.96026 2.42928 9.82162 2.23792C9.49024 2.9571 9.25094 3.72745 9.11882 4.53386C9.04065 5.01099 9 5.50074 9 5.99999C9 10.9706 13.0294 15 18 15Z" fill="black"/>
</svg>
