<svg width="1.5rem" height="1.5rem" viewBox="0 0 24 24" fill="none" xmlns="http://www.w3.org/2000/svg">
<path d="M10.998 19V22H12.998V19H10.998Z" fill="black"/>
<path d="M16.241 17.657L18.362 19.778H18.364L19.777 18.365L17.655 16.243L16.241 17.657Z" fill="black"/>
<path d="M4.21899 18.364L5.63399 19.778L7.75399 17.656L6.33899 16.242L4.21899 18.364Z" fill="black"/>
<path d="M6.99299 11.9987C6.99225 14.7637 9.23296 17.0059 11.998 17.007C14.7629 17.0053 17.0042 14.7649 17.007 12C17.007 9.23497 14.7657 6.99337 12.0007 6.993C9.23562 6.99263 6.99372 9.23364 6.99299 11.9987Z" fill="black"/>
<path d="M18.998 13H21.998V11H18.998V13Z" fill="black"/>
<path d="M1.99799 13H4.99799V11H1.99799V13Z" fill="black"/>
<path d="M16.241 6.343L17.654 7.758L19.777 5.636L18.362 4.221L16.241 6.343Z" fill="black"/>
<path d="M4.22099 5.637L6.34099 7.758L7.75599 6.345L5.63599 4.223L4.22099 5.637Z" fill="black"/>
<path d="M10.998 5H12.998V2H10.998V5Z" fill="black"/>
</svg>
